<svg width="236" height="72" viewBox="0 0 236 72" fill="none" xmlns="http://www.w3.org/2000/svg">
<rect width="236" height="72" rx="20" fill="#AED8FF"/>
<path d="M175.793 20.6406H180.852V54H175.793V20.6406ZM186.379 20.6406H192.648L195.988 34.1367C196.34 35.556 196.613 36.9232 196.809 38.2383C197.004 39.5404 197.186 40.7578 197.355 41.8906H197.512C197.694 40.7578 197.876 39.5404 198.059 38.2383C198.254 36.9232 198.527 35.556 198.879 34.1367L202.18 20.6406H208.449V54H203.918V42.9648C203.918 40.6992 203.944 38.5703 203.996 36.5781C204.061 34.5859 204.133 32.8411 204.211 31.3438C204.302 29.8464 204.38 28.707 204.445 27.9258H204.074L199.035 49.7031H195.832L190.754 27.9258H190.383C190.461 28.707 190.539 29.8464 190.617 31.3438C190.695 32.8411 190.76 34.5859 190.812 36.5781C190.878 38.5703 190.91 40.6992 190.91 42.9648V54H186.379V20.6406ZM212.473 47.2422C212.473 46.526 212.512 45.862 212.59 45.25C212.681 44.638 212.811 43.987 212.98 43.2969H216.906V44.7812C216.906 46.5781 217.18 47.9583 217.727 48.9219C218.273 49.8724 219.113 50.3477 220.246 50.3477C222.199 50.3477 223.176 49.3906 223.176 47.4766C223.176 46.7344 223.013 45.9531 222.688 45.1328C222.375 44.3125 221.757 43.3099 220.832 42.125L215.559 35.5039C214.634 34.306 213.911 33.1081 213.391 31.9102C212.883 30.7122 212.629 29.3776 212.629 27.9062C212.629 25.6927 213.312 23.8828 214.68 22.4766C216.06 21.0573 217.967 20.3477 220.402 20.3477C222.368 20.3477 223.911 20.7057 225.031 21.4219C226.151 22.125 226.939 23.0169 227.395 24.0977C227.863 25.1784 228.098 26.2852 228.098 27.418C228.098 28.1341 228.039 28.7982 227.922 29.4102C227.818 30.0091 227.694 30.6732 227.551 31.4023H223.645V29.8008C223.645 28.043 223.365 26.6888 222.805 25.7383C222.245 24.7878 221.444 24.3125 220.402 24.3125C219.452 24.3125 218.729 24.5794 218.234 25.1133C217.753 25.6341 217.512 26.3372 217.512 27.2227C217.512 27.9779 217.668 28.668 217.98 29.293C218.293 29.9049 218.69 30.5365 219.172 31.1875L225.051 38.6484C226.132 40.0417 226.952 41.3698 227.512 42.6328C228.085 43.8828 228.371 45.276 228.371 46.8125C228.371 49.1172 227.635 50.9466 226.164 52.3008C224.693 53.6419 222.733 54.3125 220.285 54.3125C218.28 54.3125 216.704 53.974 215.559 53.2969C214.426 52.6068 213.625 51.7214 213.156 50.6406C212.701 49.5599 212.473 48.4271 212.473 47.2422Z" fill="black"/>
<rect width="168" height="72" rx="20" fill="#82C2FF"/>
<path d="M9.26953 44.2422C9.26953 43.526 9.30859 42.862 9.38672 42.25C9.47786 41.638 9.60807 40.987 9.77734 40.2969H13.7031V41.7812C13.7031 43.5781 13.9766 44.9583 14.5234 45.9219C15.0703 46.8724 15.9102 47.3477 17.043 47.3477C18.9961 47.3477 19.9727 46.3906 19.9727 44.4766C19.9727 43.7344 19.8099 42.9531 19.4844 42.1328C19.1719 41.3125 18.5534 40.3099 17.6289 39.125L12.3555 32.5039C11.431 31.306 10.7083 30.1081 10.1875 28.9102C9.67969 27.7122 9.42578 26.3776 9.42578 24.9062C9.42578 22.6927 10.1094 20.8828 11.4766 19.4766C12.8568 18.0573 14.7643 17.3477 17.1992 17.3477C19.1654 17.3477 20.7083 17.7057 21.8281 18.4219C22.9479 19.125 23.7357 20.0169 24.1914 21.0977C24.6602 22.1784 24.8945 23.2852 24.8945 24.418C24.8945 25.1341 24.8359 25.7982 24.7188 26.4102C24.6146 27.0091 24.4909 27.6732 24.3477 28.4023H20.4414V26.8008C20.4414 25.043 20.1615 23.6888 19.6016 22.7383C19.0417 21.7878 18.2409 21.3125 17.1992 21.3125C16.2487 21.3125 15.526 21.5794 15.0312 22.1133C14.5495 22.6341 14.3086 23.3372 14.3086 24.2227C14.3086 24.9779 14.4648 25.668 14.7773 26.293C15.0898 26.9049 15.487 27.5365 15.9688 28.1875L21.8477 35.6484C22.9284 37.0417 23.7487 38.3698 24.3086 39.6328C24.8815 40.8828 25.168 42.276 25.168 43.8125C25.168 46.1172 24.4323 47.9466 22.9609 49.3008C21.4896 50.6419 19.5299 51.3125 17.082 51.3125C15.0768 51.3125 13.5013 50.974 12.3555 50.2969C11.2227 49.6068 10.4219 48.7214 9.95312 47.6406C9.4974 46.5599 9.26953 45.4271 9.26953 44.2422ZM29.1914 27.8555H26.9062V24.1055H29.6211L30.6172 17.1328H34.1328V24.1055H38.625V27.8555H34.1328V44.3398C34.1328 45.5117 34.3411 46.2539 34.7578 46.5664C35.1875 46.8789 35.6888 47.0352 36.2617 47.0352C37.1732 47.0352 37.9544 46.8333 38.6055 46.4297V49.5547C38.0456 50.2448 37.3945 50.7135 36.6523 50.9609C35.9102 51.1953 35.194 51.3125 34.5039 51.3125C33.5924 51.3125 32.7266 51.1367 31.9062 50.7852C31.099 50.4206 30.4414 49.737 29.9336 48.7344C29.4388 47.7188 29.1914 46.2409 29.1914 44.3008V27.8555ZM47.9219 51.293C47.0625 51.293 46.1966 51.1693 45.3242 50.9219C44.4518 50.6615 43.6445 50.1406 42.9023 49.3594C42.1732 48.5781 41.5872 47.3997 41.1445 45.8242C40.7018 44.2357 40.4805 42.1133 40.4805 39.457V35.2383C40.4805 32.6211 40.7083 30.5508 41.1641 29.0273C41.6198 27.4909 42.2188 26.3516 42.9609 25.6094C43.7031 24.8542 44.5104 24.3659 45.3828 24.1445C46.2552 23.9102 47.1081 23.793 47.9414 23.793C48.7487 23.793 49.582 23.9036 50.4414 24.125C51.3008 24.3333 52.0951 24.8086 52.8242 25.5508C53.5534 26.2799 54.1458 27.4193 54.6016 28.9688C55.0573 30.5052 55.2852 32.5951 55.2852 35.2383V39.457C55.2852 42.0742 55.0508 44.1706 54.582 45.7461C54.1133 47.3086 53.5078 48.4935 52.7656 49.3008C52.0234 50.0951 51.2227 50.6289 50.3633 50.9023C49.5169 51.1628 48.7031 51.293 47.9219 51.293ZM47.9609 47.6211C48.8464 47.6211 49.4583 47.1328 49.7969 46.1562C50.1484 45.1797 50.3242 43.4349 50.3242 40.9219V34.2227C50.3242 31.6966 50.1484 29.9388 49.7969 28.9492C49.4583 27.9596 48.8464 27.4648 47.9609 27.4648C47.0365 27.4648 46.3854 27.9596 46.0078 28.9492C45.6302 29.9388 45.4414 31.6966 45.4414 34.2227V40.9219C45.4414 43.4349 45.6302 45.1797 46.0078 46.1562C46.3854 47.1328 47.0365 47.6211 47.9609 47.6211ZM58.9961 39.9844V34.9062C58.9961 32.849 59.1654 31.1432 59.5039 29.7891C59.8555 28.4349 60.3112 27.3542 60.8711 26.5469C61.431 25.7396 62.0495 25.1406 62.7266 24.75C63.4036 24.3594 64.0742 24.1055 64.7383 23.9883C65.4023 23.8581 66.0078 23.793 66.5547 23.793C68.3776 23.793 69.8555 24.2747 70.9883 25.2383C72.1211 26.2018 72.6875 27.6927 72.6875 29.7109C72.6875 30.3229 72.6549 30.8568 72.5898 31.3125C72.5378 31.7682 72.4596 32.2044 72.3555 32.6211H68.6055V31.7812C68.6055 30.4271 68.4167 29.3724 68.0391 28.6172C67.6745 27.849 67.1276 27.4648 66.3984 27.4648C65.6042 27.4648 64.9987 27.9076 64.582 28.793C64.1654 29.6654 63.957 31.2604 63.957 33.5781V41.2148C63.957 43.5586 64.1393 45.2122 64.5039 46.1758C64.8815 47.1393 65.5521 47.6211 66.5156 47.6211C67.0104 47.6211 67.4792 47.3607 67.9219 46.8398C68.3776 46.306 68.6055 45.3294 68.6055 43.9102V42.7383H72.6094V43.9688C72.6094 46.5208 72.0625 48.3828 70.9688 49.5547C69.875 50.7135 68.2083 51.293 65.9688 51.293C63.7031 51.293 61.9714 50.4076 60.7734 48.6367C59.5885 46.8659 58.9961 43.9818 58.9961 39.9844ZM75.9102 15.4727H80.8516V35.9219H81.0078L86.3984 24.1055H91.1445L85.3828 36.1758L91.7109 51H86.7109L81.0078 37.6602H80.8516V51H75.9102V15.4727ZM94.3086 17.6406H107.062V21.7812H99.3672V31.6055H105.402V35.5898H99.3672V51H94.3086V17.6406ZM109.66 15.4727H114.602V51H109.66V15.4727ZM126.438 51.293C125.578 51.293 124.712 51.1693 123.84 50.9219C122.967 50.6615 122.16 50.1406 121.418 49.3594C120.689 48.5781 120.103 47.3997 119.66 45.8242C119.217 44.2357 118.996 42.1133 118.996 39.457V35.2383C118.996 32.6211 119.224 30.5508 119.68 29.0273C120.135 27.4909 120.734 26.3516 121.477 25.6094C122.219 24.8542 123.026 24.3659 123.898 24.1445C124.771 23.9102 125.624 23.793 126.457 23.793C127.264 23.793 128.098 23.9036 128.957 24.125C129.816 24.3333 130.611 24.8086 131.34 25.5508C132.069 26.2799 132.661 27.4193 133.117 28.9688C133.573 30.5052 133.801 32.5951 133.801 35.2383V39.457C133.801 42.0742 133.566 44.1706 133.098 45.7461C132.629 47.3086 132.023 48.4935 131.281 49.3008C130.539 50.0951 129.738 50.6289 128.879 50.9023C128.033 51.1628 127.219 51.293 126.438 51.293ZM126.477 47.6211C127.362 47.6211 127.974 47.1328 128.312 46.1562C128.664 45.1797 128.84 43.4349 128.84 40.9219V34.2227C128.84 31.6966 128.664 29.9388 128.312 28.9492C127.974 27.9596 127.362 27.4648 126.477 27.4648C125.552 27.4648 124.901 27.9596 124.523 28.9492C124.146 29.9388 123.957 31.6966 123.957 34.2227V40.9219C123.957 43.4349 124.146 45.1797 124.523 46.1562C124.901 47.1328 125.552 47.6211 126.477 47.6211ZM140.676 51L136.242 24.1055H140.949L142.883 38.6758L143.352 44.125H143.508L144.094 38.6758L146.672 24.1055H150.832L153.488 38.6758L154.211 44.125H154.367L154.699 38.6758L156.398 24.1055H161.008L156.652 51H152.102L149.309 36.0391L148.684 31.918H148.527L147.961 36.0391L145.422 51H140.676Z" fill="black"/>
</svg>
