<svg width="256" height="268" viewBox="0 0 256 268" fill="none" xmlns="http://www.w3.org/2000/svg">
<rect y="112" width="256" height="144" rx="20" fill="#AED8FF"/>
<path d="M102.466 199.641H107.525V233H102.466V199.641ZM113.052 199.641H119.322L122.661 213.137C123.013 214.556 123.286 215.923 123.482 217.238C123.677 218.54 123.859 219.758 124.029 220.891H124.185C124.367 219.758 124.549 218.54 124.732 217.238C124.927 215.923 125.2 214.556 125.552 213.137L128.853 199.641H135.122V233H130.591V221.965C130.591 219.699 130.617 217.57 130.669 215.578C130.734 213.586 130.806 211.841 130.884 210.344C130.975 208.846 131.053 207.707 131.118 206.926H130.747L125.708 228.703H122.505L117.427 206.926H117.056C117.134 207.707 117.212 208.846 117.29 210.344C117.368 211.841 117.433 213.586 117.486 215.578C117.551 217.57 117.583 219.699 117.583 221.965V233H113.052V199.641ZM139.146 226.242C139.146 225.526 139.185 224.862 139.263 224.25C139.354 223.638 139.484 222.987 139.654 222.297H143.579V223.781C143.579 225.578 143.853 226.958 144.4 227.922C144.947 228.872 145.786 229.348 146.919 229.348C148.872 229.348 149.849 228.391 149.849 226.477C149.849 225.734 149.686 224.953 149.361 224.133C149.048 223.312 148.43 222.31 147.505 221.125L142.232 214.504C141.307 213.306 140.585 212.108 140.064 210.91C139.556 209.712 139.302 208.378 139.302 206.906C139.302 204.693 139.986 202.883 141.353 201.477C142.733 200.057 144.641 199.348 147.075 199.348C149.042 199.348 150.585 199.706 151.704 200.422C152.824 201.125 153.612 202.017 154.068 203.098C154.536 204.178 154.771 205.285 154.771 206.418C154.771 207.134 154.712 207.798 154.595 208.41C154.491 209.009 154.367 209.673 154.224 210.402H150.318V208.801C150.318 207.043 150.038 205.689 149.478 204.738C148.918 203.788 148.117 203.312 147.075 203.312C146.125 203.312 145.402 203.579 144.907 204.113C144.426 204.634 144.185 205.337 144.185 206.223C144.185 206.978 144.341 207.668 144.654 208.293C144.966 208.905 145.363 209.536 145.845 210.188L151.724 217.648C152.805 219.042 153.625 220.37 154.185 221.633C154.758 222.883 155.044 224.276 155.044 225.812C155.044 228.117 154.308 229.947 152.837 231.301C151.366 232.642 149.406 233.312 146.958 233.312C144.953 233.312 143.377 232.974 142.232 232.297C141.099 231.607 140.298 230.721 139.829 229.641C139.374 228.56 139.146 227.427 139.146 226.242Z" fill="black"/>
<path d="M12.2031 199.641H17.0469L19.293 219.797L19.5469 224.504H20.0352L20.5039 219.797L24.0977 199.641H28.1406L31.5781 219.797L31.9688 224.504H32.4766L32.7109 219.797L34.7617 199.641H39.625L34.957 233H29.8203L27.0664 216.965L26.207 209.992H25.8164L24.9766 216.965L22.0859 233H17.0078L12.2031 199.641ZM43.3164 199.641H49.5859L52.9258 213.137C53.2773 214.556 53.5508 215.923 53.7461 217.238C53.9414 218.54 54.1237 219.758 54.293 220.891H54.4492C54.6315 219.758 54.8138 218.54 54.9961 217.238C55.1914 215.923 55.4648 214.556 55.8164 213.137L59.1172 199.641H65.3867V233H60.8555V221.965C60.8555 219.699 60.8815 217.57 60.9336 215.578C60.9987 213.586 61.0703 211.841 61.1484 210.344C61.2396 208.846 61.3177 207.707 61.3828 206.926H61.0117L55.9727 228.703H52.7695L47.6914 206.926H47.3203C47.3984 207.707 47.4766 208.846 47.5547 210.344C47.6328 211.841 47.6979 213.586 47.75 215.578C47.8151 217.57 47.8477 219.699 47.8477 221.965V233H43.3164V199.641ZM69.4102 226.242C69.4102 225.526 69.4492 224.862 69.5273 224.25C69.6185 223.638 69.7487 222.987 69.918 222.297H73.8438V223.781C73.8438 225.578 74.1172 226.958 74.6641 227.922C75.2109 228.872 76.0508 229.348 77.1836 229.348C79.1367 229.348 80.1133 228.391 80.1133 226.477C80.1133 225.734 79.9505 224.953 79.625 224.133C79.3125 223.312 78.694 222.31 77.7695 221.125L72.4961 214.504C71.5716 213.306 70.849 212.108 70.3281 210.91C69.8203 209.712 69.5664 208.378 69.5664 206.906C69.5664 204.693 70.25 202.883 71.6172 201.477C72.9974 200.057 74.9049 199.348 77.3398 199.348C79.306 199.348 80.849 199.706 81.9688 200.422C83.0885 201.125 83.8763 202.017 84.332 203.098C84.8008 204.178 85.0352 205.285 85.0352 206.418C85.0352 207.134 84.9766 207.798 84.8594 208.41C84.7552 209.009 84.6315 209.673 84.4883 210.402H80.582V208.801C80.582 207.043 80.3021 205.689 79.7422 204.738C79.1823 203.788 78.3815 203.312 77.3398 203.312C76.3893 203.312 75.6667 203.579 75.1719 204.113C74.6901 204.634 74.4492 205.337 74.4492 206.223C74.4492 206.978 74.6055 207.668 74.918 208.293C75.2305 208.905 75.6276 209.536 76.1094 210.188L81.9883 217.648C83.069 219.042 83.8893 220.37 84.4492 221.633C85.0221 222.883 85.3086 224.276 85.3086 225.812C85.3086 228.117 84.5729 229.947 83.1016 231.301C81.6302 232.642 79.6706 233.312 77.2227 233.312C75.2174 233.312 73.6419 232.974 72.4961 232.297C71.3633 231.607 70.5625 230.721 70.0938 229.641C69.638 228.56 69.4102 227.427 69.4102 226.242Z" fill="black"/>
<path d="M184.109 233.293C183.302 233.293 182.417 233.176 181.453 232.941C180.503 232.707 179.598 232.219 178.738 231.477C177.879 230.734 177.176 229.621 176.629 228.137C176.082 226.639 175.809 224.641 175.809 222.141V210.324C175.809 208.319 175.991 206.652 176.355 205.324C176.733 203.983 177.221 202.915 177.82 202.121C178.432 201.314 179.103 200.715 179.832 200.324C180.574 199.921 181.316 199.66 182.059 199.543C182.801 199.413 183.484 199.348 184.109 199.348C184.708 199.348 185.372 199.406 186.102 199.523C186.844 199.641 187.579 199.895 188.309 200.285C189.038 200.663 189.702 201.249 190.301 202.043C190.913 202.837 191.401 203.905 191.766 205.246C192.143 206.587 192.332 208.28 192.332 210.324V222.141C192.332 224.615 192.046 226.594 191.473 228.078C190.9 229.562 190.177 230.682 189.305 231.438C188.432 232.18 187.527 232.674 186.59 232.922C185.665 233.169 184.839 233.293 184.109 233.293ZM184.109 229.328C185.112 229.328 185.854 228.951 186.336 228.195C186.818 227.44 187.059 226.027 187.059 223.957V208.918C187.059 206.783 186.818 205.318 186.336 204.523C185.854 203.716 185.112 203.312 184.109 203.312C183.081 203.312 182.319 203.716 181.824 204.523C181.342 205.318 181.102 206.783 181.102 208.918V223.957C181.102 226.027 181.342 227.44 181.824 228.195C182.319 228.951 183.081 229.328 184.109 229.328ZM197.312 199.641H203.582L206.922 213.137C207.273 214.556 207.547 215.923 207.742 217.238C207.938 218.54 208.12 219.758 208.289 220.891H208.445C208.628 219.758 208.81 218.54 208.992 217.238C209.188 215.923 209.461 214.556 209.812 213.137L213.113 199.641H219.383V233H214.852V221.965C214.852 219.699 214.878 217.57 214.93 215.578C214.995 213.586 215.066 211.841 215.145 210.344C215.236 208.846 215.314 207.707 215.379 206.926H215.008L209.969 228.703H206.766L201.688 206.926H201.316C201.395 207.707 201.473 208.846 201.551 210.344C201.629 211.841 201.694 213.586 201.746 215.578C201.811 217.57 201.844 219.699 201.844 221.965V233H197.312V199.641ZM223.406 226.242C223.406 225.526 223.445 224.862 223.523 224.25C223.615 223.638 223.745 222.987 223.914 222.297H227.84V223.781C227.84 225.578 228.113 226.958 228.66 227.922C229.207 228.872 230.047 229.348 231.18 229.348C233.133 229.348 234.109 228.391 234.109 226.477C234.109 225.734 233.947 224.953 233.621 224.133C233.309 223.312 232.69 222.31 231.766 221.125L226.492 214.504C225.568 213.306 224.845 212.108 224.324 210.91C223.816 209.712 223.562 208.378 223.562 206.906C223.562 204.693 224.246 202.883 225.613 201.477C226.993 200.057 228.901 199.348 231.336 199.348C233.302 199.348 234.845 199.706 235.965 200.422C237.085 201.125 237.872 202.017 238.328 203.098C238.797 204.178 239.031 205.285 239.031 206.418C239.031 207.134 238.973 207.798 238.855 208.41C238.751 209.009 238.628 209.673 238.484 210.402H234.578V208.801C234.578 207.043 234.298 205.689 233.738 204.738C233.178 203.788 232.378 203.312 231.336 203.312C230.385 203.312 229.663 203.579 229.168 204.113C228.686 204.634 228.445 205.337 228.445 206.223C228.445 206.978 228.602 207.668 228.914 208.293C229.227 208.905 229.624 209.536 230.105 210.188L235.984 217.648C237.065 219.042 237.885 220.37 238.445 221.633C239.018 222.883 239.305 224.276 239.305 225.812C239.305 228.117 238.569 229.947 237.098 231.301C235.626 232.642 233.667 233.312 231.219 233.312C229.214 233.312 227.638 232.974 226.492 232.297C225.359 231.607 224.559 230.721 224.09 229.641C223.634 228.56 223.406 227.427 223.406 226.242Z" fill="black"/>
<rect width="256" height="188" rx="20" fill="#82C2FF"/>
<path d="M33.6742 119.553C33.6742 118.658 33.723 117.827 33.8206 117.062C33.9346 116.298 34.0973 115.484 34.3089 114.621H39.2161V116.477C39.2161 118.723 39.5579 120.448 40.2415 121.652C40.9251 122.84 41.9749 123.435 43.391 123.435C45.8324 123.435 47.0531 122.238 47.0531 119.846C47.0531 118.918 46.8496 117.941 46.4427 116.916C46.0521 115.891 45.279 114.637 44.1234 113.156L37.5316 104.88C36.376 103.382 35.4727 101.885 34.8216 100.388C34.1869 98.8903 33.8695 97.222 33.8695 95.3828C33.8695 92.6159 34.724 90.3535 36.4329 88.5957C38.1582 86.8216 40.5426 85.9346 43.5863 85.9346C46.0439 85.9346 47.9727 86.3822 49.3724 87.2773C50.7721 88.1562 51.7568 89.2712 52.3265 90.6221C52.9124 91.973 53.2054 93.3564 53.2054 94.7725C53.2054 95.6676 53.1322 96.4977 52.9857 97.2627C52.8555 98.0114 52.7008 98.8415 52.5218 99.7529H47.639V97.751C47.639 95.5537 47.2891 93.861 46.5892 92.6729C45.8893 91.4847 44.8883 90.8906 43.5863 90.8906C42.3981 90.8906 41.4948 91.2243 40.8763 91.8916C40.2741 92.5426 39.973 93.4215 39.973 94.5283C39.973 95.4723 40.1683 96.335 40.5589 97.1162C40.9495 97.8812 41.446 98.6706 42.0482 99.4844L49.3968 108.811C50.7477 110.552 51.7731 112.212 52.473 113.791C53.1891 115.354 53.5472 117.095 53.5472 119.016C53.5472 121.896 52.6276 124.183 50.7884 125.876C48.9492 127.552 46.4997 128.391 43.4398 128.391C40.9333 128.391 38.9639 127.967 37.5316 127.121C36.1156 126.258 35.1146 125.152 34.5286 123.801C33.959 122.45 33.6742 121.034 33.6742 119.553ZM58.5765 99.0693H55.7201V94.3818H59.1136L60.3587 85.666H64.7533V94.3818H70.3685V99.0693H64.7533V119.675C64.7533 121.14 65.0137 122.067 65.5345 122.458C66.0716 122.849 66.6982 123.044 67.4144 123.044C68.5537 123.044 69.5303 122.792 70.3441 122.287V126.193C69.6442 127.056 68.8304 127.642 67.9027 127.951C66.9749 128.244 66.0798 128.391 65.2171 128.391C64.0778 128.391 62.9954 128.171 61.9701 127.731C60.9609 127.276 60.139 126.421 59.5042 125.168C58.8857 123.898 58.5765 122.051 58.5765 119.626V99.0693ZM81.9896 128.366C80.9154 128.366 79.833 128.212 78.7425 127.902C77.652 127.577 76.6429 126.926 75.7152 125.949C74.8037 124.973 74.0713 123.5 73.5179 121.53C72.9645 119.545 72.6878 116.892 72.6878 113.571V108.298C72.6878 105.026 72.9727 102.438 73.5423 100.534C74.112 98.6136 74.8607 97.1895 75.7884 96.2617C76.7161 95.3177 77.7253 94.7074 78.8158 94.4307C79.9063 94.1377 80.9723 93.9912 82.014 93.9912C83.0231 93.9912 84.0648 94.1296 85.139 94.4062C86.2132 94.6667 87.2061 95.2607 88.1175 96.1885C89.029 97.0999 89.7695 98.5241 90.3392 100.461C90.9089 102.382 91.1937 104.994 91.1937 108.298V113.571C91.1937 116.843 90.9007 119.463 90.3148 121.433C89.7288 123.386 88.972 124.867 88.0443 125.876C87.1165 126.869 86.1156 127.536 85.0413 127.878C83.9834 128.203 82.9661 128.366 81.9896 128.366ZM82.0384 123.776C83.1452 123.776 83.9102 123.166 84.3333 121.945C84.7728 120.725 84.9925 118.544 84.9925 115.402V107.028C84.9925 103.871 84.7728 101.674 84.3333 100.437C83.9102 99.1995 83.1452 98.5811 82.0384 98.5811C80.8828 98.5811 80.069 99.1995 79.597 100.437C79.125 101.674 78.889 103.871 78.889 107.028V115.402C78.889 118.544 79.125 120.725 79.597 121.945C80.069 123.166 80.8828 123.776 82.0384 123.776ZM95.8324 114.23V107.883C95.8324 105.311 96.0439 103.179 96.4671 101.486C96.9066 99.7936 97.4762 98.4427 98.1761 97.4336C98.876 96.4245 99.6491 95.6758 100.495 95.1875C101.342 94.6992 102.18 94.3818 103.01 94.2354C103.84 94.0726 104.597 93.9912 105.281 93.9912C107.559 93.9912 109.407 94.5934 110.823 95.7979C112.239 97.0023 112.947 98.8659 112.947 101.389C112.947 102.154 112.906 102.821 112.825 103.391C112.759 103.96 112.662 104.506 112.532 105.026H107.844V103.977C107.844 102.284 107.608 100.965 107.136 100.021C106.68 99.0612 105.997 98.5811 105.085 98.5811C104.092 98.5811 103.336 99.1344 102.815 100.241C102.294 101.332 102.034 103.326 102.034 106.223V115.769C102.034 118.698 102.261 120.765 102.717 121.97C103.189 123.174 104.027 123.776 105.232 123.776C105.85 123.776 106.436 123.451 106.99 122.8C107.559 122.132 107.844 120.912 107.844 119.138V117.673H112.849V119.211C112.849 122.401 112.165 124.729 110.798 126.193C109.431 127.642 107.348 128.366 104.548 128.366C101.716 128.366 99.5514 127.259 98.054 125.046C96.5729 122.832 95.8324 119.227 95.8324 114.23ZM116.975 83.5908H123.152V109.152H123.347L130.085 94.3818H136.018L128.816 109.47L136.726 128H130.476L123.347 111.325H123.152V128H116.975V83.5908ZM139.973 86.3008H155.915V91.4766H146.296V103.757H153.84V108.737H146.296V128H139.973V86.3008ZM159.162 83.5908H165.339V128H159.162V83.5908ZM180.134 128.366C179.06 128.366 177.978 128.212 176.887 127.902C175.797 127.577 174.787 126.926 173.86 125.949C172.948 124.973 172.216 123.5 171.662 121.53C171.109 119.545 170.832 116.892 170.832 113.571V108.298C170.832 105.026 171.117 102.438 171.687 100.534C172.257 98.6136 173.005 97.1895 173.933 96.2617C174.861 95.3177 175.87 94.7074 176.96 94.4307C178.051 94.1377 179.117 93.9912 180.159 93.9912C181.168 93.9912 182.209 94.1296 183.284 94.4062C184.358 94.6667 185.351 95.2607 186.262 96.1885C187.174 97.0999 187.914 98.5241 188.484 100.461C189.053 102.382 189.338 104.994 189.338 108.298V113.571C189.338 116.843 189.045 119.463 188.459 121.433C187.873 123.386 187.117 124.867 186.189 125.876C185.261 126.869 184.26 127.536 183.186 127.878C182.128 128.203 181.111 128.366 180.134 128.366ZM180.183 123.776C181.29 123.776 182.055 123.166 182.478 121.945C182.917 120.725 183.137 118.544 183.137 115.402V107.028C183.137 103.871 182.917 101.674 182.478 100.437C182.055 99.1995 181.29 98.5811 180.183 98.5811C179.027 98.5811 178.214 99.1995 177.742 100.437C177.27 101.674 177.034 103.871 177.034 107.028V115.402C177.034 118.544 177.27 120.725 177.742 121.945C178.214 123.166 179.027 123.776 180.183 123.776ZM197.932 128L192.39 94.3818H198.274L200.691 112.595L201.277 119.406H201.472L202.204 112.595L205.427 94.3818H210.627L213.948 112.595L214.851 119.406H215.046L215.461 112.595L217.585 94.3818H223.347L217.903 128H212.214L208.723 109.299L207.942 104.147H207.746L207.038 109.299L203.865 128H197.932Z" fill="black"/>
</svg>
